<svg id="visual" viewBox="0 0 900 600" width="900" height="600" xmlns="http://www.w3.org/2000/svg" xmlns:xlink="http://www.w3.org/1999/xlink" version="1.1"><rect x="0" y="0" width="900" height="600" fill="#ffffff"></rect><path d="M0 392L21.5 389.2C43 386.3 86 380.7 128.8 388.8C171.7 397 214.3 419 257.2 417.2C300 415.3 343 389.7 385.8 384.7C428.7 379.7 471.3 395.3 514.2 407.3C557 419.3 600 427.7 642.8 423.2C685.7 418.7 728.3 401.3 771.2 393.7C814 386 857 388 878.5 389L900 390L900 601L878.5 601C857 601 814 601 771.2 601C728.3 601 685.7 601 642.8 601C600 601 557 601 514.2 601C471.3 601 428.7 601 385.8 601C343 601 300 601 257.2 601C214.3 601 171.7 601 128.8 601C86 601 43 601 21.5 601L0 601Z" fill="#ffffff"></path><path d="M0 447L21.5 450.3C43 453.7 86 460.3 128.8 455C171.7 449.7 214.3 432.3 257.2 428.5C300 424.7 343 434.3 385.8 431.7C428.7 429 471.3 414 514.2 411.7C557 409.3 600 419.7 642.8 419.8C685.7 420 728.3 410 771.2 409.8C814 409.7 857 419.3 878.5 424.2L900 429L900 601L878.5 601C857 601 814 601 771.2 601C728.3 601 685.7 601 642.8 601C600 601 557 601 514.2 601C471.3 601 428.7 601 385.8 601C343 601 300 601 257.2 601C214.3 601 171.7 601 128.8 601C86 601 43 601 21.5 601L0 601Z" fill="#cfcdce"></path><path d="M0 474L21.5 471C43 468 86 462 128.8 466.3C171.7 470.7 214.3 485.3 257.2 491.5C300 497.7 343 495.3 385.8 495.5C428.7 495.7 471.3 498.3 514.2 498.3C557 498.3 600 495.7 642.8 486.2C685.7 476.7 728.3 460.3 771.2 458.2C814 456 857 468 878.5 474L900 480L900 601L878.5 601C857 601 814 601 771.2 601C728.3 601 685.7 601 642.8 601C600 601 557 601 514.2 601C471.3 601 428.7 601 385.8 601C343 601 300 601 257.2 601C214.3 601 171.7 601 128.8 601C86 601 43 601 21.5 601L0 601Z" fill="#a19ea0"></path><path d="M0 505L21.5 508.2C43 511.3 86 517.7 128.8 516C171.7 514.3 214.3 504.7 257.2 499.2C300 493.7 343 492.3 385.8 496.5C428.7 500.7 471.3 510.3 514.2 510.8C557 511.3 600 502.7 642.8 505.3C685.7 508 728.3 522 771.2 529C814 536 857 536 878.5 536L900 536L900 601L878.5 601C857 601 814 601 771.2 601C728.3 601 685.7 601 642.8 601C600 601 557 601 514.2 601C471.3 601 428.7 601 385.8 601C343 601 300 601 257.2 601C214.3 601 171.7 601 128.8 601C86 601 43 601 21.5 601L0 601Z" fill="#767274"></path><path d="M0 561L21.5 561.2C43 561.3 86 561.7 128.8 563C171.7 564.3 214.3 566.7 257.2 563.3C300 560 343 551 385.8 549.8C428.7 548.7 471.3 555.3 514.2 558.7C557 562 600 562 642.8 562.8C685.7 563.7 728.3 565.3 771.2 561.2C814 557 857 547 878.5 542L900 537L900 601L878.5 601C857 601 814 601 771.2 601C728.3 601 685.7 601 642.8 601C600 601 557 601 514.2 601C471.3 601 428.7 601 385.8 601C343 601 300 601 257.2 601C214.3 601 171.7 601 128.8 601C86 601 43 601 21.5 601L0 601Z" fill="#4d484a"></path></svg>